<svg width="19" height="14" fill="none" xmlns="http://www.w3.org/2000/svg"><path fill-rule="evenodd" clip-rule="evenodd" d="M.578.15C.111.365 0 .663 0 1.704c0 .874.07 1.143.362 1.409.13.117 1.12.573 7.191 3.31 1.008.455 1.783.758 1.947.762.196.004 1.475-.54 4.55-1.937 2.352-1.07 4.384-2.017 4.515-2.107.372-.257.433-.462.434-1.473 0-1.048-.096-1.31-.566-1.538C18.182.01 17.43 0 9.527.001 1.295 0 .881.008.578.148ZM0 9.037c0 4.652-.013 4.54.578 4.815.303.14.714.147 8.922.147s8.62-.007 8.922-.147c.591-.275.578-.163.578-4.815 0-2.392-.03-4.106-.07-4.106-.04 0-1.96.856-4.268 1.902-2.309 1.046-4.336 1.94-4.505 1.989a2.633 2.633 0 0 1-1.315 0c-.17-.049-2.196-.944-4.504-1.99C2.03 5.789.11 4.933.07 4.933.029 4.932 0 6.629 0 9.038Z" fill="#fff"/></svg>