<svg width="19" height="19" fill="none" xmlns="http://www.w3.org/2000/svg"><path fill-rule="evenodd" clip-rule="evenodd" d="M3.09.073C2.037.336.884 1.312.296 2.437c-.298.57-.3.587-.295 1.885.007 1.492.151 2.165.784 3.646C2.815 12.723 8.3 17.7 12.748 18.822c.463.117 1.033.177 1.682.178 1.144.002 1.575-.128 2.542-.764 1.231-.81 1.936-1.92 2.016-3.174.06-.935-.1-1.469-.59-1.958-.387-.388-.387-.388-2.766-.966-1.308-.319-2.44-.56-2.514-.536-.075.024-.26.071-.41.104-.158.036-.555.335-.952.72l-.68.66-.63-.346c-.956-.526-1.711-1.097-2.54-1.921-.754-.749-1.684-2.033-2.019-2.785l-.179-.403.713-.72c1.142-1.154 1.149-1.274.24-3.956C5.948.852 5.788.565 5.145.235 4.705.01 3.67-.072 3.09.074Z" fill="#fff"/></svg>